<?xml version="1.0" encoding="utf-8"?>
<!-- Generator: Adobe Illustrator 26.2.1, SVG Export Plug-In . SVG Version: 6.00 Build 0)  -->
<svg version="1.1" id="圖層_1" xmlns="http://www.w3.org/2000/svg" xmlns:xlink="http://www.w3.org/1999/xlink" x="0px" y="0px"
	 viewBox="0 0 512 512" style="enable-background:new 0 0 512 512;" xml:space="preserve">
<style type="text/css">
	.st0{fill:#FFC900;}
	.st1{fill:#EA6A0C;}
</style>
<path class="st0" d="M470.3,403.3c-1.7-3.1-4.2-5.6-7.2-7.4l-21.7-13c-8.5-5.1-15.4-12.3-20.3-20.9c-4.9-8.6-7.4-18.3-7.4-28.1
	V216.7c0-34-11-67.1-31.4-94.2c-20.4-27.2-49-47.1-81.6-56.6c-1.4-0.4-2.7-1.2-3.5-2.4c-0.9-1.2-1.4-2.6-1.4-4.1
	c0-10.4-4.1-20.4-11.5-27.8c-7.4-7.4-17.4-11.5-27.8-11.5c-10.4,0-20.4,4.1-27.8,11.5c-7.4,7.4-11.5,17.4-11.5,27.8
	c0,1.5-0.5,2.9-1.4,4.1c-0.9,1.2-2.1,2-3.5,2.4c-32.6,9.6-61.3,29.4-81.6,56.6c-20.4,27.2-31.4,60.3-31.4,94.2v117.1
	c0,9.9-2.6,19.6-7.4,28.1c-4.9,8.6-11.9,15.8-20.3,20.9l-21.7,13c-3.7,2.2-6.6,5.6-8.3,9.7c-1.6,4-1.9,8.5-0.8,12.7
	c1.1,4.2,3.6,7.9,7,10.6c3.4,2.7,7.7,4.1,12,4.2h393.3c3.4-0.1,6.8-1,9.8-2.8c3-1.8,5.4-4.2,7.2-7.2c1.7-3,2.7-6.4,2.7-9.8
	C472.8,409.7,472,406.3,470.3,403.3L470.3,403.3z"/>
<path class="st1" d="M222.4,481.1c7.4,5.3,16,8.7,25,10.1c9,1.4,18.2,0.7,26.8-2.1s16.6-7.5,23.1-13.8c6.5-6.3,11.5-14.1,14.5-22.7
	H201C205,464.1,212.5,474.1,222.4,481.1z"/>
</svg>
