<?xml version="1.0" ?><svg id="Layer_1" style="enable-background:new 0 0 91 91;" version="1.1" viewBox="0 0 91 91" xml:space="preserve" xmlns="http://www.w3.org/2000/svg" xmlns:xlink="http://www.w3.org/1999/xlink"><g><path d="M52.7,19.1H19.9v53.2h32.8V19.1z M34.7,62.2h-3.4v-6.2h3.4V62.2z M34.7,49.7h-3.4v-6.2h3.4V49.7z M34.7,37.3h-3.4v-6.2h3.4   V37.3z M45,62.2h-3.4v-6.2H45V62.2z M45,49.7h-3.4v-6.2H45V49.7z M45,37.3h-3.4v-6.2H45V37.3z"/><path d="M75.2,65.6V40.9l-19.7,0v31.4h13C72.2,72.3,75.2,69.3,75.2,65.6z M67.6,62.3H61V59h6.6V62.3z M67.6,54H61v-3.4h6.6V54z"/></g></svg>