<?xml version="1.0" encoding="utf-8"?>
<!-- Generator: Adobe Illustrator 26.2.1, SVG Export Plug-In . SVG Version: 6.00 Build 0)  -->
<svg version="1.1" id="圖層_1" xmlns="http://www.w3.org/2000/svg" xmlns:xlink="http://www.w3.org/1999/xlink" x="0px" y="0px"
	 viewBox="0 0 283.5 283.5" style="enable-background:new 0 0 283.5 283.5;" xml:space="preserve">
<style type="text/css">
	.st0{fill:#FFFFFF;stroke:#767777;stroke-width:6;stroke-miterlimit:10;}
	.st1{fill:none;stroke:#767777;stroke-width:6;stroke-miterlimit:10;}
</style>
<g>
	<path class="st0" d="M59.1,231.7v-90.1c0-6.6,5.4-12,12-12H251c6.6,0,12,5.4,12,12v90.1c0,6.6-5.4,12-12,12H71.1
		C64.5,243.7,59.1,238.3,59.1,231.7z"/>
	<path class="st0" d="M131.3,243.7H32.4c-6.6,0-12-5.4-12-12V51.8c0-6.6,5.4-12,12-12h98.9c6.6,0,12,5.4,12,12v179.9
		C143.3,238.3,137.9,243.7,131.3,243.7z"/>
	<path class="st0" d="M84,109H41.1c-3.1,0-5.7-2.6-5.7-5.7V60.4c0-3.1,2.6-5.7,5.7-5.7H84c3.1,0,5.7,2.6,5.7,5.7v42.9
		C89.6,106.4,87.1,109,84,109z"/>
	<line class="st1" x1="35.4" y1="129.6" x2="109.6" y2="129.6"/>
	<line class="st1" x1="35.4" y1="147.7" x2="89.6" y2="147.7"/>
</g>
</svg>
