<?xml version="1.0" encoding="utf-8"?>
<!-- Generator: Adobe Illustrator 26.2.1, SVG Export Plug-In . SVG Version: 6.00 Build 0)  -->
<svg version="1.1" id="Layer_1" xmlns="http://www.w3.org/2000/svg" xmlns:xlink="http://www.w3.org/1999/xlink" x="0px" y="0px"
	 viewBox="0 0 200 200" style="enable-background:new 0 0 200 200;" xml:space="preserve">
<style type="text/css">
	.st0{fill:#06B3FF;}
</style>
<g>
	<path class="st0" d="M29.6,134.9l-18.6,18.6c-0.5,0.5-0.7,1.4-0.4,2.1c0.3,0.7,1,1.2,1.8,1.2h175.4c0.8,0,1.5-0.4,1.8-1.2
		c0.3-0.7,0.1-1.6-0.4-2.1l-18.6-18.6H29.6z M169.5,145.4c0.4,0.4,0.5,1.1,0.2,1.6c-0.3,0.6-0.8,0.9-1.4,0.9h-49.8l0.3,1.3
		c0.1,0.3,0,0.5-0.2,0.8c-0.2,0.2-0.4,0.3-0.7,0.3H82.1c-0.3,0-0.5-0.1-0.7-0.3c-0.2-0.2-0.2-0.5-0.2-0.8l0.3-1.3H31.7
		c-0.6,0-1.1-0.3-1.4-0.9c-0.3-0.6-0.1-1.2,0.2-1.6l5.1-5.9h128.8L169.5,145.4z"/>
	<path class="st0" d="M187.7,157.9h-72.2c-0.1,0.2-0.2,0.4-0.3,0.5c-0.4,0.5-1,0.7-1.6,0.7H86.4c-0.6,0-1.2-0.3-1.6-0.7
		c-0.1-0.2-0.2-0.3-0.3-0.5H12.3c-0.7,0-1.4-0.3-1.9-0.7v1.9c0,1.2,0.5,2.4,1.3,3.2c0.9,0.9,2.1,1.3,3.2,1.3h170
		c1.2,0,2.4-0.4,3.3-1.3c0.9-0.9,1.3-2.1,1.3-3.2v-1.9C189.1,157.6,188.4,157.9,187.7,157.9z M26.6,161.8c-0.5,0-1-0.4-1-1
		c0-0.6,0.4-1,1-1c0.6,0,1,0.4,1,1C27.6,161.4,27.1,161.8,26.6,161.8z M31.4,161.8c-0.6,0-1-0.4-1-1c0-0.6,0.5-1,1-1
		c0.6,0,1,0.4,1,1C32.4,161.4,32,161.8,31.4,161.8z M36.2,161.8c-0.6,0-1-0.4-1-1c0-0.6,0.4-1,1-1c0.6,0,1,0.4,1,1
		C37.2,161.4,36.8,161.8,36.2,161.8z"/>
</g>
<g>
	<polygon class="st0" points="161.3,100 161.3,122 38.7,122 38.7,100 29.6,100 29.6,131.2 170.4,131.2 170.4,100 	"/>
	<path class="st0" d="M38.7,66.6V45.5h122.5v21.2h9.2v-25c0-1.4-0.5-2.7-1.6-3.8c-1-1-2.4-1.6-3.8-1.6H34.9c-1.4,0-2.7,0.5-3.8,1.6
		c-1,1-1.6,2.4-1.6,3.8v25H38.7z M100,39.3c0.9,0,1.6,0.7,1.6,1.6c0,0.9-0.7,1.6-1.6,1.6s-1.6-0.7-1.6-1.6
		C98.4,40,99.1,39.3,100,39.3z"/>
</g>
<path class="st0" d="M43,67.8l-12.4,13c-0.7,0.7-1.1,1.7-1.1,2.8c0,1.1,0.4,2,1.1,2.8l12.4,13c1.5,1.5,3.9,1.5,5.3,0
	c1.5-1.5,1.5-4,0-5.6l-5.9-6.2h26.8c2.1,0,3.8-1.8,3.8-4c0-2.2-1.7-4-3.8-4H42.4l6-6.2c1.5-1.5,1.5-4,0-5.6
	C46.9,66.2,44.5,66.2,43,67.8z"/>
<path class="st0" d="M156.9,99.3l12.4-13c0.7-0.7,1.1-1.7,1.1-2.8c0-1.1-0.4-2-1.1-2.8l-12.4-13c-1.5-1.5-3.9-1.5-5.3,0
	c-1.5,1.5-1.5,4,0,5.6l5.9,6.2h-26.8c-2.1,0-3.8,1.8-3.8,4c0,2.2,1.7,4,3.8,4h26.8l-6,6.2c-1.5,1.5-1.5,4,0,5.6
	C153.1,100.8,155.5,100.8,156.9,99.3z"/>
</svg>
